<svg width="3671" height="1966" viewBox="0 0 3671 1966" fill="none" xmlns="http://www.w3.org/2000/svg">
<g style="mix-blend-mode:overlay">
<path d="M1663 785.499C1273 1106.7 1281.5 1611 1334.5 1823C1682.1 2325 3207.33 1376.17 3926.5 838.999L3955 -129.001C3709 -168.501 3176.8 -237.701 3016 -198.501C2815 -149.501 2150.5 383.999 1663 785.499Z" fill="#B2F7EF"/>
<ellipse cx="875.5" cy="162" rx="875.5" ry="873" fill="#FFB5A7"/>
<path d="M1441.5 256.5C1221.9 213.7 1303.33 -163 1371.5 -346L2479 -215C2520 -72.8333 2560.1 224.6 2392.5 277C2183 342.5 1716 310 1441.5 256.5Z" fill="#CCD5AE"/>
<path d="M2320.12 510.738C2195.32 1212.74 2825.79 1309.24 3156.62 1269.74C3632.22 1269.74 3986.45 1010.07 4104.12 880.238V-259.762C3849.79 -330.929 3304.22 -471.562 3156.62 -464.762C2972.12 -456.262 2476.12 -366.762 2320.12 510.738Z" fill="#E2AFFF"/>
</g>
</svg>
